# xmcd CD database file
#
# Track frame offsets:
#	150
#	19895
#	40332
#	51860
#	75917
#	98212
#	113910
#	124215
#	152155
#	162520
#	171407
#	193807
#
# Disc length: 2803 seconds
#
# Revision: 0
# Processed by: cddbd v1.5.2PL0 Copyright (c) Steve Scherf et al.
# Submitted via: CDex 1.51
#
DISCID=9f0af10c
DTITLE=Lehrer Big Band Bayern - Shanghai Blues
DYEAR=2000
DGENRE=Blues
TTITLE0=Hot Seats
TTITLE1=Night Train
TTITLE2=Tangerine
TTITLE3=Darn that Dream
TTITLE4=Basically Blues
TTITLE5=Scoot
TTITLE6=Almost like being in Love
TTITLE7=Shanghai Blues
TTITLE8=Devils Pulpit
TTITLE9=The Way
TTITLE10=Low Down
TTITLE11=John Browns other Body
EXTD=YEAR: 2000
EXTT0=
EXTT1=
EXTT2=
EXTT3=
EXTT4=
EXTT5=
EXTT6=
EXTT7=
EXTT8=
EXTT9=
EXTT10=
EXTT11=
PLAYORDER=
